<?xml version="1.0" encoding="UTF-8" standalone="no"?>
<svg
   xmlns:dc="http://purl.org/dc/elements/1.1/"
   xmlns:cc="http://creativecommons.org/ns#"
   xmlns:rdf="http://www.w3.org/1999/02/22-rdf-syntax-ns#"
   xmlns:svg="http://www.w3.org/2000/svg"
   xmlns="http://www.w3.org/2000/svg"
   viewBox="0 0 1122.52 793.70135"
   height="793.70135"
   width="1122.52"
   xml:space="preserve"
   id="svg2"
   version="1.1"><metadata
     id="metadata8"><rdf:RDF><cc:Work
         rdf:about=""><dc:format>image/svg+xml</dc:format><dc:type
           rdf:resource="http://purl.org/dc/dcmitype/StillImage" /></cc:Work></rdf:RDF></metadata><defs
     id="defs6"><clipPath
       id="clipPath18"
       clipPathUnits="userSpaceOnUse"><path
         id="path16"
         d="M 0,595.276 H 841.89 V 0 H 0 Z" /></clipPath><clipPath
       id="clipPath28"
       clipPathUnits="userSpaceOnUse"><path
         id="path26"
         d="M 608.017,542.142 603.39,542.2 H 141.065 V 99.137 h 467.342 c 0.016,0.027 0.063,0.107 0.063,0.107 0,0 129.114,205.81 139.651,222.606 -24.714,38.871 -140.104,220.292 -140.104,220.292" /></clipPath><linearGradient
       id="linearGradient38"
       spreadMethod="pad"
       gradientTransform="matrix(607.05615,0,0,-607.05615,141.06494,320.66846)"
       gradientUnits="userSpaceOnUse"
       y2="0"
       x2="1"
       y1="0"
       x1="0"><stop
         id="stop34"
         offset="0"
         style="stop-opacity:1;stop-color:#ffffff" /><stop
         id="stop36"
         offset="1"
         style="stop-opacity:1;stop-color:#bfb6ad" /></linearGradient><clipPath
       id="clipPath48"
       clipPathUnits="userSpaceOnUse"><path
         id="path46"
         d="m 607.956,98.367 0.087,0.147 c -0.027,-0.047 -0.087,-0.147 -0.087,-0.147" /></clipPath><linearGradient
       id="linearGradient58"
       spreadMethod="pad"
       gradientTransform="matrix(0.0869141,0,0,-0.0869141,607.95605,98.439453)"
       gradientUnits="userSpaceOnUse"
       y2="0"
       x2="1"
       y1="0"
       x1="0"><stop
         id="stop54"
         offset="0"
         style="stop-opacity:1;stop-color:#ffffff" /><stop
         id="stop56"
         offset="1"
         style="stop-opacity:1;stop-color:#bfb6ad" /></linearGradient></defs><g
     transform="matrix(1.3333333,0,0,-1.3333333,0,793.70133)"
     id="g10"><g
       id="g12"><g
         clip-path="url(#clipPath18)"
         id="g14"><path
           id="path20"
           style="fill:#ed1c24;fill-opacity:1;fill-rule:nonzero;stroke:none"
           d="m 124.057,96.797 v 449.366 c 0,0 -0.117,13.045 14.288,13.045 h 466.517 c 0,0 12.107,-0.11 17.703,-8.567 6.857,-10.361 145.671,-228.73 145.671,-228.73 L 622.877,90.205 c 0,0 -4.418,-8.076 -13.995,-8.076 h -470.78 c 0,0 -14.045,0.476 -14.045,14.668" /><g
           id="g22"><g
             clip-path="url(#clipPath28)"
             id="g24"><g
               id="g30"><g
                 id="g32"><path
                   id="path40"
                   style="fill:url(#linearGradient38);stroke:none"
                   d="M 608.017,542.142 603.39,542.2 H 141.065 V 99.137 h 467.342 c 0.016,0.027 0.063,0.107 0.063,0.107 0,0 129.114,205.81 139.651,222.606 -24.714,38.871 -140.104,220.292 -140.104,220.292" /></g></g></g></g><g
           id="g42"><g
             clip-path="url(#clipPath48)"
             id="g44"><g
               id="g50"><g
                 id="g52"><path
                   id="path60"
                   style="fill:url(#linearGradient58);stroke:none"
                   d="m 607.956,98.367 0.087,0.147 c -0.027,-0.047 -0.087,-0.147 -0.087,-0.147" /></g></g></g></g><path
           id="path62"
           style="fill:#231f20;fill-opacity:1;fill-rule:nonzero;stroke:none"
           d="m 173.014,247.398 v -10.197 h 12.875 v -37.625 h 11.759 v 37.625 h 12.875 v 10.197 z" /><path
           id="path64"
           style="fill:#231f20;fill-opacity:1;fill-rule:nonzero;stroke:none"
           d="m 229.346,234.988 c -1.439,-0.617 -3.113,-1.808 -4.965,-3.484 v 4.457 h -11.134 v -36.385 h 11.134 v 23.785 c 1.087,0.414 2.125,0.731 3.071,0.912 1.057,0.202 2.294,0.303 3.675,0.303 l 2.314,-0.121 c 1.106,-0.1 1.645,-0.238 1.903,-0.34 l 0.099,-0.039 h 1.563 v 11.842 l -1.708,0.137 c -0.001,0 -1.222,0.031 -1.222,0.031 -1.444,0 -3.035,-0.369 -4.73,-1.098" /><path
           id="path66"
           style="fill:#231f20;fill-opacity:1;fill-rule:nonzero;stroke:none"
           d="m 262.617,235.961 v -25.272 c -0.853,-0.578 -1.738,-1.043 -2.642,-1.349 -0.981,-0.334 -1.881,-0.504 -2.675,-0.504 -1.195,0 -2.124,0.16 -2.759,0.475 -0.606,0.298 -1.046,0.765 -1.348,1.425 -0.347,0.721 -0.569,1.643 -0.665,2.752 l -0.152,4.399 v 18.074 h -11.134 v -23.529 c 0,-4.494 0.986,-7.955 2.928,-10.289 1.969,-2.366 4.799,-3.567 8.411,-3.567 2.216,0 4.16,0.442 5.777,1.309 1.299,0.697 2.744,1.732 4.259,2.961 v -3.27 h 11.134 v 36.385 z" /><path
           id="path68"
           style="fill:#231f20;fill-opacity:1;fill-rule:nonzero;stroke:none"
           d="m 284.502,233.402 c -2.963,-2.351 -4.466,-5.347 -4.466,-8.902 0,-2.754 0.73,-5.094 2.171,-6.953 1.438,-1.856 3.654,-3.236 6.586,-4.104 1.046,-0.316 2.231,-0.591 3.519,-0.814 l 2.969,-0.604 c 1.848,-0.421 2.638,-0.793 2.977,-1.029 0.397,-0.277 0.59,-0.734 0.59,-1.402 0,-0.762 -0.353,-1.303 -1.112,-1.703 -0.855,-0.452 -2.231,-0.68 -4.089,-0.68 -1.441,0 -2.81,0.17 -4.068,0.504 -1.27,0.336 -2.423,0.746 -3.426,1.217 -1.168,0.533 -2.073,1.031 -2.695,1.482 -0.001,0 -1.862,1.412 -1.862,1.412 l -0.203,0.01 h -1.482 v -10.209 l 0.304,-0.158 c 1.399,-0.731 3.267,-1.401 5.552,-1.994 2.294,-0.596 4.877,-0.899 7.679,-0.899 5.112,0 9.21,1.166 12.18,3.461 3.015,2.332 4.543,5.443 4.543,9.252 0,2.604 -0.673,4.815 -2.001,6.57 -1.327,1.754 -3.385,3.053 -6.119,3.86 -0.007,0.002 -3.594,0.844 -3.594,0.844 l -3.266,0.669 c -2.175,0.518 -2.982,0.934 -3.275,1.192 -0.375,0.33 -0.557,0.816 -0.557,1.488 0,0.443 0.137,1.098 1.319,1.643 1.02,0.47 2.306,0.709 3.823,0.709 1.86,0 3.726,-0.356 5.545,-1.057 1.831,-0.707 3.483,-1.635 4.911,-2.758 l 0.154,-0.123 h 1.623 v 9.84 l -0.311,0.158 c -1.233,0.623 -2.955,1.213 -5.118,1.756 -2.169,0.543 -4.467,0.818 -6.827,0.818 -5.021,0 -9.05,-1.175 -11.974,-3.496" /><path
           id="path70"
           style="fill:#231f20;fill-opacity:1;fill-rule:nonzero;stroke:none"
           d="m 316.309,246.023 v -10.062 h -4.125 v -8.76 h 4.125 v -15.93 c 0,-4.458 1.016,-7.673 3.019,-9.556 1.991,-1.875 5.035,-2.826 9.047,-2.826 1.75,0 3.26,0.091 4.487,0.271 1.218,0.18 2.39,0.432 3.484,0.748 l 0.409,0.119 v 8.684 h -1.559 l -0.138,-0.088 c -0.197,-0.123 -0.636,-0.33 -1.616,-0.623 -0.781,-0.232 -1.41,-0.352 -1.869,-0.352 -1.135,0 -1.992,0.186 -2.548,0.553 -0.552,0.363 -0.926,0.842 -1.144,1.465 -0.257,0.684 -0.394,1.457 -0.411,2.314 l -0.027,3.239 v 11.982 h 9.312 v 8.76 h -9.312 v 10.062 z" /><path
           id="path72"
           style="fill:#231f20;fill-opacity:1;fill-rule:nonzero;stroke:none"
           d="m 352.448,227.342 c 1.143,1.041 2.572,1.547 4.366,1.547 1.912,0 3.268,-0.518 4.144,-1.582 0.811,-0.987 1.262,-2.485 1.381,-4.409 h -11.716 c 0.209,2.004 0.807,3.516 1.825,4.444 m -8.24,4.459 c -3.243,-3.494 -4.887,-8.28 -4.887,-14.221 0,-6.017 1.742,-10.732 5.178,-14.01 3.429,-3.271 8.405,-4.931 14.79,-4.931 2.457,0 4.735,0.238 6.771,0.705 2.031,0.469 4.218,1.232 6.5,2.267 l 0.332,0.153 v 10.009 h -1.891 l -0.16,-0.14 c -1.101,-0.959 -2.632,-1.875 -4.552,-2.723 -1.9,-0.838 -3.889,-1.262 -5.912,-1.262 -3.181,0 -5.604,0.702 -7.202,2.082 -1.456,1.258 -2.281,3.092 -2.518,5.409 h 22.798 v 4.523 c 0,5.557 -1.338,9.893 -3.976,12.885 -2.656,3.012 -6.649,4.539 -11.869,4.539 -5.638,0 -10.147,-1.779 -13.402,-5.285" /><path
           id="path74"
           style="fill:#231f20;fill-opacity:1;fill-rule:nonzero;stroke:none"
           d="m 390.049,210.365 c -0.986,1.459 -1.486,3.887 -1.486,7.215 0,3.154 0.629,5.641 1.868,7.391 1.213,1.711 2.997,2.543 5.454,2.543 l 2.034,-0.209 c 0.613,-0.117 1.194,-0.332 1.761,-0.575 v -16.595 c -0.688,-0.524 -1.452,-0.983 -2.33,-1.317 -0.949,-0.361 -1.852,-0.545 -2.686,-0.545 -2.154,0 -3.663,0.684 -4.615,2.092 m 9.631,39.158 v -14.689 c -0.992,0.504 -1.984,1 -2.927,1.354 -1.258,0.472 -2.877,0.71 -4.81,0.71 -1.879,0 -3.78,-0.457 -5.651,-1.359 -1.869,-0.9 -3.482,-2.182 -4.793,-3.81 -1.374,-1.696 -2.47,-3.758 -3.259,-6.124 -0.786,-2.357 -1.185,-5.093 -1.185,-8.134 0,-5.7 1.186,-10.305 3.527,-13.692 2.386,-3.451 5.618,-5.203 9.606,-5.203 2.047,0 3.886,0.406 5.466,1.205 1.257,0.637 2.619,1.633 4.026,2.83 v -3.035 h 11.133 v 49.947 z" /><path
           id="path76"
           style="fill:#231f20;fill-opacity:1;fill-rule:nonzero;stroke:none"
           d="m 431.084,246.023 v -10.062 h -4.125 v -8.76 h 4.125 v -15.93 c 0,-4.458 1.016,-7.673 3.018,-9.556 1.992,-1.875 5.036,-2.826 9.047,-2.826 1.751,0 3.261,0.091 4.488,0.271 1.217,0.18 2.389,0.432 3.484,0.748 l 0.408,0.119 v 8.684 h -1.558 l -0.139,-0.088 c -0.196,-0.123 -0.635,-0.33 -1.615,-0.623 -0.781,-0.232 -1.41,-0.352 -1.869,-0.352 -1.135,0 -1.993,0.186 -2.549,0.553 -0.552,0.363 -0.926,0.842 -1.144,1.465 -0.257,0.684 -0.393,1.457 -0.411,2.314 l -0.027,3.239 v 11.982 h 9.312 v 8.76 h -9.312 v 10.062 z" /><path
           id="path78"
           style="fill:#231f20;fill-opacity:1;fill-rule:nonzero;stroke:none"
           d="m 472.444,234.988 c -1.437,-0.617 -3.112,-1.808 -4.965,-3.484 v 4.457 h -11.133 v -36.385 h 11.133 v 23.785 c 1.087,0.414 2.125,0.731 3.071,0.912 1.056,0.202 2.294,0.303 3.677,0.303 l 2.313,-0.121 c 1.105,-0.1 1.645,-0.238 1.903,-0.34 l 0.099,-0.039 h 1.562 v 11.842 l -1.708,0.137 c 0,0 -1.222,0.031 -1.222,0.031 -1.444,0 -3.034,-0.369 -4.73,-1.098" /><path
           id="path80"
           style="fill:#231f20;fill-opacity:1;fill-rule:nonzero;stroke:none"
           d="m 495.741,207.668 c -0.514,0.172 -0.943,0.432 -1.309,0.793 -0.371,0.35 -0.597,0.699 -0.682,1.051 -0.101,0.418 -0.151,0.976 -0.151,1.66 0,0.976 0.226,1.764 0.673,2.34 0.457,0.592 1.142,1.052 2.036,1.371 0.772,0.279 1.94,0.527 3.473,0.742 10e-4,0 2.547,0.303 3.745,0.443 v -6.453 c -0.69,-0.636 -1.479,-1.174 -2.374,-1.574 -0.95,-0.426 -1.896,-0.643 -2.812,-0.643 -1.192,0 -2.067,0.09 -2.599,0.27 m -5.051,28.641 v 0 c -2.38,-0.43 -4.128,-0.809 -5.196,-1.127 l -0.405,-0.119 v -9.487 h 1.585 l 4.098,1.549 c 1.794,0.631 3.5,0.951 5.072,0.951 2.625,0 4.623,-0.349 5.936,-1.043 1.129,-0.595 1.696,-1.652 1.773,-3.183 -2.747,-0.19 -5.44,-0.465 -7.998,-0.838 -2.784,-0.405 -5.159,-1.1 -7.054,-2.065 -1.95,-0.984 -3.481,-2.355 -4.551,-4.07 -1.068,-1.717 -1.611,-3.941 -1.611,-6.613 0,-3.364 1.061,-6.17 3.155,-8.342 2.098,-2.178 4.735,-3.283 7.84,-3.283 1.291,0 2.5,0.127 3.592,0.375 1.1,0.25 2.172,0.64 3.184,1.158 0.742,0.398 1.528,0.935 2.346,1.603 0,0 0.538,0.448 1.07,0.893 v -3.092 h 11.01 v 24.547 c 0,4.389 -1.345,7.67 -3.994,9.752 -2.611,2.047 -6.858,3.086 -12.624,3.086 -2.399,0 -4.831,-0.219 -7.228,-0.652" /><path
           id="path82"
           style="fill:#231f20;fill-opacity:1;fill-rule:nonzero;stroke:none"
           d="m 531.806,217.58 c 0,3.156 0.628,5.643 1.866,7.391 1.213,1.711 2.997,2.543 5.455,2.543 l 2.033,-0.209 c 0.611,-0.116 1.194,-0.332 1.761,-0.575 v -16.595 c -0.688,-0.524 -1.453,-0.983 -2.33,-1.319 -0.948,-0.359 -1.853,-0.543 -2.687,-0.543 -2.152,0 -3.661,0.684 -4.614,2.092 -0.985,1.459 -1.484,3.887 -1.484,7.215 m 11.115,31.943 v -14.689 c -0.991,0.504 -1.984,1 -2.927,1.354 -1.258,0.472 -2.876,0.71 -4.81,0.71 -1.879,0 -3.781,-0.457 -5.651,-1.359 -1.868,-0.898 -3.48,-2.182 -4.793,-3.81 -1.375,-1.7 -2.471,-3.76 -3.259,-6.124 -0.786,-2.357 -1.185,-5.093 -1.185,-8.134 0,-5.7 1.186,-10.307 3.526,-13.692 2.387,-3.451 5.619,-5.203 9.608,-5.203 2.047,0 3.885,0.406 5.465,1.205 1.255,0.635 2.618,1.633 4.026,2.832 v -3.037 h 11.135 v 49.947 z" /><path
           id="path84"
           style="fill:#231f20;fill-opacity:1;fill-rule:nonzero;stroke:none"
           d="m 573.155,227.342 c 1.143,1.041 2.572,1.547 4.366,1.547 1.912,0 3.267,-0.518 4.145,-1.582 0.81,-0.985 1.261,-2.483 1.381,-4.409 H 571.33 c 0.21,2.006 0.808,3.518 1.825,4.444 m -8.239,4.459 c -3.243,-3.494 -4.888,-8.28 -4.888,-14.221 0,-6.019 1.743,-10.732 5.178,-14.01 3.43,-3.271 8.405,-4.931 14.79,-4.931 2.458,0 4.736,0.238 6.772,0.705 2.03,0.469 4.217,1.232 6.5,2.267 l 0.333,0.153 v 10.009 h -1.892 l -0.16,-0.14 c -1.1,-0.959 -2.632,-1.875 -4.553,-2.723 -1.9,-0.838 -3.889,-1.262 -5.912,-1.262 -3.181,0 -5.604,0.702 -7.201,2.082 -1.456,1.258 -2.281,3.092 -2.518,5.409 h 22.798 v 4.523 c 0,5.557 -1.338,9.891 -3.975,12.885 -2.658,3.012 -6.651,4.539 -11.87,4.539 -5.638,0 -10.148,-1.779 -13.402,-5.285" /><path
           id="path86"
           style="fill:#231f20;fill-opacity:1;fill-rule:nonzero;stroke:none"
           d="m 616.11,234.988 c -1.437,-0.617 -3.112,-1.808 -4.964,-3.484 v 4.457 h -11.135 v -36.385 h 11.135 v 23.785 c 1.086,0.414 2.124,0.731 3.07,0.912 1.056,0.202 2.294,0.303 3.677,0.303 l 2.313,-0.121 c 1.105,-0.1 1.645,-0.238 1.903,-0.34 l 0.099,-0.039 h 1.563 v 11.842 l -1.708,0.137 c -10e-4,0 -1.223,0.031 -1.223,0.031 -1.444,0 -3.034,-0.369 -4.73,-1.098" /><path
           id="path88"
           style="fill:#ed1c24;fill-opacity:1;fill-rule:nonzero;stroke:none"
           d="m 260.576,394.018 13.672,-61.519 15.181,72.357 h 27.809 L 289.784,280.48 H 263.65 l -19.652,70.019 -19.44,-70.019 h -26.052 l -27.455,124.376 h 29.407 l 14.54,-71.607 17.946,71.607 h 16.054 c 8.826,0 11.578,-10.838 11.578,-10.838" /><path
           id="path90"
           style="fill:#ed1c24;fill-opacity:1;fill-rule:nonzero;stroke:none"
           d="m 440.23,280.73 h -29.375 v 93.75 h 29.375 z" /><path
           id="path92"
           style="fill:#ed1c24;fill-opacity:1;fill-rule:nonzero;stroke:none"
           d="m 484.642,305.234 c -9.136,7.308 -9.747,16.286 -9.747,21.802 0,5.513 -0.259,25.787 20.391,25.648 12.254,-0.082 20.23,-1.43 24.379,-2.386 v 21.024 c -2.964,1.339 -6.065,2.498 -9.327,3.448 -4.777,1.391 -9.998,2.086 -15.662,2.086 -6.305,0 -12.389,-0.92 -18.248,-2.756 -5.862,-1.838 -11.033,-4.732 -15.516,-8.685 -4.629,-4.176 -8.236,-9.436 -10.822,-15.784 -2.586,-6.347 -3.879,-13.89 -3.879,-22.631 0,-8.296 1.205,-15.533 3.619,-21.712 2.414,-6.18 5.813,-11.304 10.197,-15.366 4.432,-4.065 9.641,-7.07 15.625,-9.02 5.985,-1.947 12.596,-2.922 19.836,-2.922 5.516,0 10.553,0.655 15.11,1.961 3.11,0.893 6.128,2.016 9.067,3.338 v 22.024 c -6.523,-1.74 -26.988,-6.497 -35.023,-0.069" /><path
           id="path94"
           style="fill:#ed1c24;fill-opacity:1;fill-rule:nonzero;stroke:none"
           d="m 552.887,397.925 v -32.014 c 5.342,4.202 8.105,5.982 12.465,8.209 4.359,2.226 10.016,3.041 15.689,2.736 8.952,-0.482 15.971,-2.951 21.022,-8.854 5.048,-5.902 4.574,-14.726 4.574,-26.472 v -61.05 h -26.625 v 65.053 c 0.111,8.341 -8.826,8.903 -13.389,8.653 -4.556,-0.25 -13.736,-4.18 -13.736,-4.18 V 280.48 h -26.625 v 124.811 h 19.276 c 0,0 7.272,0.163 7.349,-7.366" /><path
           id="path96"
           style="fill:#ed1c24;fill-opacity:1;fill-rule:nonzero;stroke:none"
           d="m 348.887,397.925 v -32.014 c 5.342,4.202 8.105,5.982 12.465,8.209 4.359,2.226 10.016,3.041 15.689,2.736 8.952,-0.482 15.971,-2.951 21.022,-8.854 5.048,-5.902 4.574,-14.726 4.574,-26.472 v -61.05 h -26.625 v 65.053 c 0.111,8.341 -8.826,8.903 -13.389,8.653 -4.556,-0.25 -13.736,-4.18 -13.736,-4.18 V 280.48 h -26.625 v 124.811 h 19.276 c 0,0 7.272,0.163 7.349,-7.366" /><path
           id="path98"
           style="fill:#231f20;fill-opacity:1;fill-rule:nonzero;stroke:none"
           d="m 603.329,406.886 c 12.648,5.376 25.898,11.023 39.95,10.406 12.533,-0.548 24.713,-6.511 31.829,-16.932 6.937,-10.157 7.205,-22.587 2.038,-33.548 -5.157,-10.932 -14.189,-19.118 -21.699,-28.385 -5.304,-6.546 -8.424,-13.207 -8.322,-21.683 0.011,-0.823 0.038,-1.646 0.065,-2.469 -8.337,0.002 -16.676,0 -25.014,0 h -3.516 c -0.062,2.412 -0.114,13.525 -0.114,13.525 0,0 -0.191,8.786 3.715,14.973 3.885,6.153 8.999,10.074 14.395,14.09 7.753,5.766 19.555,19.633 9.632,28.915 -1.914,1.789 -5.11,3.551 -7.713,4.048 -6.731,1.283 -13.789,0.809 -20.528,-0.142 -3.026,-0.428 -6.035,-0.968 -9.045,-1.497 -1.899,-0.334 -3.796,-0.694 -5.675,-1.128 -0.007,5.749 -0.007,11.498 0.002,17.248 0.001,0.857 0.017,1.713 0,2.579" /><path
           id="path100"
           style="fill:#ed1c24;fill-opacity:1;fill-rule:nonzero;stroke:none"
           d="m 440.016,388.077 c 0,-3.057 -2.618,-5.535 -5.846,-5.535 h -17.826 c -3.229,0 -5.846,2.478 -5.846,5.535 v 12.387 c 0,3.057 2.617,5.535 5.846,5.535 h 17.826 c 3.228,0 5.846,-2.478 5.846,-5.535 z" /><path
           id="path102"
           style="fill:#231f20;fill-opacity:1;fill-rule:nonzero;stroke:none"
           d="m 647.814,286.461 c 0,-3.297 -2.694,-5.969 -6.016,-5.969 H 623.45 c -3.322,0 -6.016,2.672 -6.016,5.969 v 13.361 c 0,3.297 2.694,5.97 6.016,5.97 h 18.348 c 3.322,0 6.016,-2.673 6.016,-5.97 z" /></g></g></g></svg>